# xmcd
#
# Track frame offsets: 
#        150
#        14019
#        26765
#        46054
#        58078
#        75148
#        91326
#        106338
#        118706
#        132766
#        184952
#        192702
#        216822
#
# Disc length: 2940 seconds
#
# Revision: 0
# Processed by: cddbd v1.5.2PL0 Copyright (c) Steve Scherf et al.
# Submitted via: ExactAudioCopy v1.0b3
#
DISCID=b00b7a0d
DTITLE=Big Jay McNeely - Life Story
DYEAR=2012
DGENRE=Rhythm and Blues
TTITLE0=Rock And Roll
TTITLE1=Mellow Day
TTITLE2=Go On
TTITLE3=Funky Bug
TTITLE4=We Gonna Boogie
TTITLE5=Deacon In Minor
TTITLE6=That's Bad Boogie
TTITLE7=Blow Your Brains Out
TTITLE8=The Jam
TTITLE9=The Story Of Big Jay's Life
TTITLE10=1,2,3,4
TTITLE11=Da Groove
TTITLE12=xtra
EXTD=
EXTT0=
EXTT1=
EXTT2=
EXTT3=
EXTT4=
EXTT5=
EXTT6=
EXTT7=
EXTT8=
EXTT9=
EXTT10=
EXTT11=
EXTT12=
PLAYORDER=
